<?xml version="1.0" encoding="UTF-8" standalone="no"?>
<!-- Created with Inkscape (http://www.inkscape.org/) -->

<svg
   version="1.1"
   id="svg2"
   width="243.00397"
   height="229.64088"
   viewBox="0 0 243.00397 229.64088"
   sodipodi:docname="pin-png-notice-board-pins.png.svg"
   inkscape:version="1.1.2 (76b9e6a115, 2022-02-25)"
   xmlns:inkscape="http://www.inkscape.org/namespaces/inkscape"
   xmlns:sodipodi="http://sodipodi.sourceforge.net/DTD/sodipodi-0.dtd"
   xmlns="http://www.w3.org/2000/svg"
   xmlns:svg="http://www.w3.org/2000/svg">
  <defs
     id="defs6">
    <inkscape:path-effect
       effect="bspline"
       id="path-effect240"
       is_visible="true"
       lpeversion="1"
       weight="33.333333"
       steps="2"
       helper_size="0"
       apply_no_weight="true"
       apply_with_weight="true"
       only_selected="false" />
  </defs>
  <sodipodi:namedview
     id="namedview4"
     pagecolor="#ffffff"
     bordercolor="#999999"
     borderopacity="1"
     inkscape:pageshadow="0"
     inkscape:pageopacity="0"
     inkscape:pagecheckerboard="0"
     showgrid="false"
     fit-margin-top="0"
     fit-margin-left="0"
     fit-margin-right="0"
     fit-margin-bottom="0"
     inkscape:zoom="1.8428571"
     inkscape:cx="207.82946"
     inkscape:cy="52.906977"
     inkscape:window-width="1024"
     inkscape:window-height="704"
     inkscape:window-x="0"
     inkscape:window-y="27"
     inkscape:window-maximized="1"
     inkscape:current-layer="g8" />
  <g
     inkscape:groupmode="layer"
     inkscape:label="Image"
     id="g8"
     transform="translate(-19.591616,-20.071951)">
    <g
       id="g48"
       transform="translate(-28.687309,11.723335)"
       inkscape:export-filename="/media/shankar/SHANKAR1/ANNA University/IT-newWebsite/Images/Logos/GreenPin.png"
       inkscape:export-xdpi="96"
       inkscape:export-ydpi="96">
      <path
         style="fill:#b6b9b3"
         d="M 162.5,227.39035 C 144.72827,222.84023 136.60382,220.09309 129.81768,216.33942 125.50289,213.95274 121.80836,212 121.60762,212 c -0.20074,0 -0.92417,1.35 -1.60762,3 -1.60448,3.87356 -4.98889,3.96461 -12.39282,0.33338 -5.18443,-2.54268 -5.51312,-2.93743 -7.07206,-8.49347 -1.38715,-4.94376 -2.044153,-5.91556 -4.335028,-6.41216 -11.147134,-2.41639 -13.760422,-4.9198 -14.864163,-14.23916 -0.570937,-4.82067 -0.479481,-5.063 2.490508,-6.59884 l 3.083209,-1.59439 -1.454823,-4.1234 C 84.65467,171.60408 84,168.05327 84,165.98126 c 0,-2.30848 -0.542687,-3.97553 -1.401464,-4.30507 -1.574272,-0.60411 -2.563499,2.05518 -2.584881,6.94881 -0.02277,5.21132 -1.186205,9.375 -2.619603,9.375 -1.492372,0 -2.002596,-1.77927 -2.867596,-10 -0.560423,-5.3261 -0.483041,-5.55386 2.447411,-7.20349 C 79.809565,159.20022 80,158.72038 80,153.17151 c 0,-8.84055 0.9154,-12.18885 3.612716,-13.21436 2.520166,-0.95817 2.564018,-1.08561 4.974882,-14.45715 6.952587,-38.561622 38.364802,-69.139147 76.008512,-73.98881 5.0957,-0.656483 5.09628,-0.65698 7.38434,-6.333862 7.18128,-17.817379 21.666,-30.287774 40.27705,-34.675904 13.66312,-3.2215025 26.03071,-1.4775495 40.7425,5.745097 6.69686,3.287775 10.19707,5.882564 16.5,12.231832 9.28094,9.349175 13.51757,16.065821 17.82572,28.260432 2.77591,7.857489 3.09439,9.947449 3.08752,20.261215 -0.0129,19.273504 -5.35845,32.81364 -18.0179,45.63849 l -7.14854,7.24195 -0.71212,9.80978 c -1.01745,14.01568 -2.93862,23.10821 -6.97383,33.00581 -4.91685,12.0601 -8.90553,18.34805 -17.39532,27.42283 -11.51563,12.30913 -25.597,20.72737 -41.66553,24.90884 -7.81717,2.03423 -31.27079,3.57348 -36,2.36265 z M 273,47.034796 c 0,-1.341711 -6.14836,-8.219771 -6.78163,-7.586495 -0.28351,0.28351 0.73757,2.323623 2.26908,4.533586 C 271.15803,47.835544 273,49.081703 273,47.034796 Z"
         id="path62" />
      <path
         style="fill:#a9db9c"
         d="m 155.09207,225.53928 c -31.92082,-8.4776 -53.96839,-29.97642 -63.703766,-62.1182 -2.419539,-7.98821 -2.702093,-10.48961 -2.702093,-23.92108 0,-13.37945 0.287768,-15.94946 2.66362,-23.78832 C 96.839668,97.598572 105.45153,84.033397 118.7926,72.484555 132.01359,61.039668 148.21343,53.62178 164.59611,51.51119 c 5.09026,-0.655781 5.09877,-0.663049 7.41743,-6.333862 9.13644,-22.345243 29.51364,-36.1121294 53.52636,-36.1625469 9.07086,-0.019045 16.88004,2.0375369 27.4601,7.2317399 6.69686,3.287775 10.19707,5.882564 16.5,12.231832 9.28094,9.349175 13.51757,16.065821 17.82572,28.260432 2.77591,7.857489 3.09439,9.947449 3.08752,20.261215 -0.013,19.535497 -4.69597,31.29262 -17.70231,44.44392 l -7.85635,7.94393 -0.42883,9.72614 c -0.78708,17.85184 -5.35592,33.80706 -13.65874,47.69885 -4.66115,7.79875 -16.78666,20.38183 -24.72825,25.66139 -15.4875,10.29607 -28.64507,14.38913 -48.53876,15.09946 -11.58456,0.41364 -14.02433,0.19213 -22.40793,-2.03441 z M 273,47.034796 c 0,-1.341711 -6.14836,-8.219771 -6.78163,-7.586495 -0.28351,0.28351 0.73757,2.323623 2.26908,4.533586 C 271.15803,47.835544 273,49.081703 273,47.034796 Z"
         id="path60" />
      <path
         style="fill:#8ece6a"
         d="m 155,224.51884 c -30.8395,-8.17281 -52.14203,-27.87294 -61.996046,-57.33265 -3.918836,-11.71581 -5.079204,-21.79514 -3.91986,-34.04915 2.327002,-24.59588 13.384996,-45.875334 32.048296,-61.672161 11.46027,-9.700103 28.69036,-17.346352 42.71435,-18.955478 6.12352,-0.702618 6.39832,-0.856278 7.81294,-4.368816 4.23434,-10.513951 7.15055,-15.106391 13.90024,-21.890031 C 208.27354,3.4226832 244.7711,4.6276016 269,29.005217 c 4.125,4.150319 9.04048,10.160038 10.92329,13.35493 11.54815,19.595798 13.10885,43.152299 4.13019,62.339263 -2.74609,5.86826 -11.53738,18.29416 -12.951,18.30537 -0.33136,0.003 -2.3414,1.60179 -4.46674,3.55369 -3.30678,3.03693 -3.7779,3.98071 -3.26566,6.54191 0.77581,3.87909 -0.99079,21.01643 -2.94182,28.53776 -7.76124,29.92004 -30.24878,53.14661 -59.92826,61.89775 -7.20639,2.12484 -11.69042,2.73808 -22.5,3.07713 -12.05824,0.3782 -14.51457,0.15455 -23,-2.09418 z M 114,176 c -0.63912,-1.19421 -1.38704,-1.94629 -1.66204,-1.67129 -0.275,0.275 0.0229,1.47708 0.66204,2.67129 0.63912,1.19421 1.38704,1.94629 1.66204,1.67129 0.275,-0.275 -0.0229,-1.47708 -0.66204,-2.67129 z M 276.18402,52.395108 C 276.01022,50.802799 274.78886,47.6474 273.46987,45.383112 269.56308,38.676381 257,28.144751 257,31.57642 c 0,0.317031 2.31617,4.029531 5.14705,8.25 10.25322,15.286218 14.77552,19.335488 14.03697,12.568688 z"
         id="path58" />
      <path
         style="fill:#45cb04"
         d="M 162.39264,224.98016 C 146.91337,222.1838 129.7332,213.97487 118.96403,204.22933 98.458753,185.67312 87.781479,158.02676 90.815491,131.3451 94.3594,100.17932 111.20077,75.41325 137.93158,62.058549 c 9.21538,-4.604002 12.63669,-5.744254 23.85101,-7.949063 l 8.71741,-1.713901 4.84109,-9.788881 c 5.88018,-11.889978 12.92058,-19.403511 23.2752,-24.839388 22.68845,-11.9107755 50.3693,-7.34302 69.48057,11.46534 27.39327,26.959082 27.53943,70.407922 0.31774,94.455794 L 262,129.35516 v 9.13876 c 0,47.84333 -35.89961,85.48674 -83,87.03168 -6.325,0.20747 -13.79831,-0.038 -16.60736,-0.54544 z M 122.99753,187.75 c -0.004,-1.96823 -12.42292,-24.05846 -13.77985,-24.51077 -2.06682,-0.68894 -1.46411,8.35741 0.86038,12.91378 2.07129,4.06006 10.28828,12.84699 12.01372,12.84699 0.49952,0 0.90711,-0.5625 0.90575,-1.25 z M 278.5945,60.4795 C 280.15954,54.243902 274.62316,42.594429 266.56438,35.16611 261.01311,30.04913 251.1656,23.50107 250.3093,24.357369 249.15677,25.509898 275.03092,63 276.97888,63 c 0.54066,0 1.26769,-1.134225 1.61562,-2.5205 z"
         id="path56" />
      <path
         style="fill:#33cd02"
         d="M 159,224.011 C 147.89939,221.60799 141.19271,219.02671 131.8998,213.58061 104.8356,197.71965 88.051622,165.6965 90.482233,134.55757 93.702003,93.308616 123.4019,60.241137 162.75755,54.087179 c 3.44166,-0.538164 6.65881,-1.22647 7.14923,-1.529567 0.49043,-0.303098 2.98156,-4.847094 5.53587,-10.097768 9.81145,-20.168597 26.31626,-30.403181 49.09725,-30.445063 16.7982,-0.03088 30.38015,5.89073 43.57865,18.999925 6.98476,6.937495 9.39422,10.164447 12.71035,17.022763 5.81269,12.021604 7.6122,19.529364 7.54113,31.462531 -0.11102,18.641844 -6.45892,31.90316 -22.12526,46.22161 -7.5496,6.90004 -9.93946,8.45924 -16.57841,10.81612 C 241.43699,139.45921 239,141.67504 239,146.23608 c 0,1.53508 -0.51994,3.79745 -1.15543,5.02749 -0.63548,1.23004 -1.47202,2.91143 -1.85898,3.73643 -0.38696,0.825 -1.21702,1.5 -1.84458,1.5 -1.37594,0 -1.47652,0.46209 -0.59859,2.74996 0.36934,0.96247 -0.001,3.43747 -0.82353,5.5 -1.09706,2.75177 -2.31716,3.9864 -4.58334,4.63792 -1.69857,0.48834 -3.34546,1.69813 -3.65977,2.68842 -0.81084,2.55474 -7.22524,7.95707 -8.75207,7.37117 -0.70337,-0.2699 -6.34629,4.51719 -12.55457,10.65049 -12.42331,12.27327 -13.04039,13.73928 -7.38374,17.54188 5.89291,3.96141 21.4312,4.31218 28.70143,0.64791 2.97909,-1.50149 2.99055,-1.49707 1.01317,0.3904 -3.59538,3.43191 -14.21964,9.46832 -20.98953,11.92565 -14.77852,5.36432 -30.89562,6.57094 -45.51047,3.4072 z m -41.48661,-48.4532 c -4.14778,-7.65554 -7.78458,-14.16232 -8.08178,-14.45952 -1.01255,-1.01255 -2.40097,2.39238 -2.40653,5.90172 -0.009,5.67226 4.12303,12.96068 11.05512,19.5 4.3515,4.10495 6.45737,5.5226 6.66748,4.48847 0.16892,-0.83133 -3.08652,-7.77514 -7.23429,-15.43067 z m 113.77672,-10.55918 c 0.28785,-1.10076 0.11534,-1.7492 -0.38337,-1.44098 -0.49871,0.30822 -0.90674,1.20884 -0.90674,2.00138 0,2.06975 0.6795,1.77459 1.29011,-0.5604 z m 15.4748,-62.91269 C 260.28308,97.144865 269.31201,85.173365 270.69568,70.356004 271.02212,66.860202 271.60439,64 271.98962,64 c 0.38522,0 1.51489,0.9 2.51038,2 3.66791,4.052991 5.5,2.06898 5.5,-5.956061 0,-10.369873 -6.15802,-20.790892 -17.8383,-30.187197 -7.77178,-6.252079 -15.61918,-10.732594 -16.77436,-9.577413 -0.3611,0.361098 -0.0854,2.0354 0.61266,3.720671 0.69806,1.685271 1.07083,3.262503 0.82837,3.50496 -0.24245,0.242457 -2.18886,-0.04182 -4.32533,-0.631733 -2.13648,-0.58991 -7.06367,-0.912023 -10.94932,-0.715807 -12.72854,0.642762 -23.58437,8.275862 -29.39331,20.667434 C 199.78505,51.891936 199.5,53.678595 199.5,63.5 c 0,9.935841 0.26867,11.573691 2.77714,16.930134 8.76587,18.718065 27.53233,27.853226 44.48777,21.655796 z M 229.5,82.588356 c -3.41157,-1.516284 -6.16346,-4.395742 -9.45147,-9.889604 -1.90142,-3.177046 -2.20756,-4.860257 -1.86435,-10.250373 0.37629,-5.909479 0.73924,-6.785633 4.33752,-10.470601 5.35497,-5.483988 10.30681,-6.777887 16.9783,-4.436374 6.56641,2.304633 7.14255,2.826859 10.16333,9.212263 4.8869,10.330056 1.49799,20.99855 -8.04724,25.333217 -4.8428,2.199206 -8.00207,2.329964 -12.11609,0.501472 z"
         id="path54" />
      <path
         style="fill:#45ae01"
         d="M 159,224.011 C 147.89939,221.60799 141.19271,219.02671 131.8998,213.58061 104.8356,197.71965 88.051622,165.6965 90.482233,134.55757 93.702003,93.308616 123.4019,60.241137 162.75755,54.087179 c 3.44166,-0.538164 6.65881,-1.22647 7.14923,-1.529567 0.49043,-0.303098 2.98156,-4.847094 5.53587,-10.097768 3.39681,-6.982547 6.21505,-11.117544 10.49276,-15.395258 6.8893,-6.889292 18.05778,-12.820964 25.56459,-13.577558 l 5,-0.503938 -3.41964,1.580544 C 208.25587,16.793493 198.82797,24.225582 195.81964,28.1704 189.04478,37.054264 184,52.26055 184,63.797879 c 0,6.348474 3.16126,18.596053 6.54478,25.356235 11.04834,22.074276 34.4707,34.385326 55.9242,29.394366 22.18608,-5.16138 38.13776,-25.223478 38.75852,-48.745771 0.11111,-4.210406 0.51499,-7.461859 0.89751,-7.22545 1.45744,0.900747 3.09494,14.971711 2.46165,21.152911 -0.94968,9.269463 -4.93996,20.85244 -9.66398,28.05261 -5.05293,7.70149 -18.00838,19.32073 -24.16365,21.67145 -2.50244,0.95568 -8.04315,2.48195 -12.31269,3.39169 l -7.76281,1.65408 -1.78888,5.27357 c -1.77518,5.23317 -11.10561,21.62074 -12.96389,22.76922 -1.22273,0.75569 -6.40306,10.689 -6.12091,11.73689 0.11547,0.42882 -4.76492,5.79943 -10.84531,11.93468 -7.88584,7.957 -10.97057,11.73725 -10.75989,13.18596 1.00803,6.93165 21.93894,10.10053 32.28218,4.88743 2.97909,-1.50149 2.99055,-1.49707 1.01317,0.3904 -3.59538,3.43191 -14.21964,9.46832 -20.98953,11.92565 -14.77852,5.36432 -30.89562,6.57094 -45.51047,3.4072 z m -41.48661,-48.4532 c -4.14778,-7.65554 -7.78458,-14.16232 -8.08178,-14.45952 -1.01255,-1.01255 -2.40097,2.39238 -2.40653,5.90172 -0.009,5.67226 4.12303,12.96068 11.05512,19.5 4.3515,4.10495 6.45737,5.5226 6.66748,4.48847 0.16892,-0.83133 -3.08652,-7.77514 -7.23429,-15.43067 z"
         id="path52" />
      <path
         style="fill:#219d0e"
         d="m 182,173.07717 c -7.06716,-0.78532 -16.03795,-3.46034 -20,-5.96386 -16.90935,-10.68457 -26.04328,-25.68096 -26.0636,-42.79203 -0.0163,-13.75766 6.18666,-25.995601 18.01187,-35.535807 4.09656,-3.304967 8.49484,-6.485878 9.77398,-7.068691 2.76032,-1.257686 3.01131,-2.287476 3.63289,-14.905823 0.26251,-5.328972 1.0775,-10.820198 1.81108,-12.202723 0.73358,-1.382525 3.49082,-6.829495 6.1272,-12.104378 3.42067,-6.844089 6.46835,-11.265623 10.64199,-15.439272 6.8893,-6.889292 18.05778,-12.820964 25.56459,-13.577558 l 5,-0.503938 -3.41964,1.580544 C 208.25587,16.793493 198.82797,24.225582 195.81964,28.1704 189.04478,37.054264 184,52.26055 184,63.797879 c 0,6.348474 3.16126,18.596053 6.54478,25.356235 11.04834,22.074276 34.4707,34.385326 55.9242,29.394366 22.18608,-5.16138 38.13776,-25.223478 38.75852,-48.745771 0.11111,-4.210406 0.51499,-7.461859 0.89751,-7.22545 1.45744,0.900747 3.09494,14.971711 2.46165,21.152911 -0.9463,9.23649 -4.93507,20.84503 -9.61137,27.9721 -4.88457,7.44447 -16.95015,18.51437 -23.1863,21.27292 -2.47728,1.09582 -7.83073,2.68016 -11.89656,3.52076 -11.24685,2.32527 -12.29005,2.94809 -14.75365,8.8085 -4.94564,11.76462 -15.54527,21.90622 -26.73474,25.57947 -8.04128,2.63976 -12.28284,3.09569 -20.40404,2.19325 z"
         id="path50" />
    </g>
    <path
       style="fill:#ffffff;stroke:none;stroke-width:1px;stroke-linecap:butt;stroke-linejoin:miter;stroke-opacity:1"
       d="m 237.54738,51.428286 c 0.0656,0.243127 0.1966,0.728198 0.7281,1.708692 0.53151,0.980495 1.4631,2.456372 2.28683,3.571637 0.82373,1.115265 1.53932,1.869998 2.08905,2.315296 0.54973,0.445297 0.93335,0.581739 1.18205,0.486109 0.24871,-0.09563 0.36389,-0.42347 0.31759,-0.828269 -0.0463,-0.404798 -0.25481,-0.887168 -0.62141,-1.456498 -0.3666,-0.569329 -0.89163,-1.225473 -1.49546,-1.924306 -0.60384,-0.698833 -1.28653,-1.440248 -1.79909,-1.964689 -0.51255,-0.52444 -0.85502,-0.831777 -1.19767,-1.141175 -0.34265,-0.309398 -0.68546,-0.620847 -0.94455,-0.789746 -0.25909,-0.168899 -0.43452,-0.194458 -0.5228,-0.20732 -0.0883,-0.01286 -0.0883,-0.01286 -0.0226,0.230269 z"
       id="path238"
       inkscape:path-effect="#path-effect240"
       inkscape:original-d="m 237.48174,51.185159 c 0.13196,0.48607 0.26292,0.971141 0.39288,1.455211 0.93263,1.476936 1.86422,2.952813 2.79483,4.42772 0.71662,0.755764 1.43221,1.510499 2.14682,2.264248 0.38462,0.137445 0.76824,0.273884 1.15086,0.409326 0.11619,-0.326851 0.23138,-0.654689 0.34556,-0.983533 -0.20751,-0.481388 -0.41602,-0.963757 -0.62554,-1.447135 -0.52404,-0.655172 -1.04906,-1.311317 -1.5751,-1.968475 -0.68172,-0.740447 -1.36441,-1.481863 -2.04812,-2.224295 -0.34149,-0.30635 -0.68396,-0.613688 -1.02744,-0.922032 -0.34182,-0.310459 -0.68463,-0.621906 -1.02844,-0.934359 -0.17444,-0.02456 -0.34987,-0.05012 -0.52631,-0.07668 z" />
  </g>
</svg>
